<svg xmlns="http://www.w3.org/2000/svg" width="430" height="430" fill="none" viewBox="0 0 430 430"><path fill="url(#-JWFbZjgaOa)" d="M257 236.999h-1.6v-10.2c15.5-11.9 25-30.3 25.7-49.8l.3-9.1c.4-.8.6-1.7.6-2.6v-14.5l.3-8.4c15.2-22.8 11-63.4.6-79.4-9.6-14.6-26.5-19.3-27.2-19.5h-.2c-23.4-5.7-47 2.5-59 7.9-2.6 1.2-5.7.9-8.1-.8l-15.8-11.3c-4.2-3.1-9.3-4.3-14.4-3.5s-9.6 3.7-12.6 8c-4 5.8-11.1 18.2-13.8 35.9-4.5 30.2 11.5 52.8 16.8 59.4l.4 12.7v13.5c0 .9.2 1.8.6 2.5l.3 9.1c.6 17.1 7.7 33 20 44.9 1.8 1.7 3.7 3.4 5.7 4.9v10.2H174c-49.1 0-89 39.9-89 89v27.8c0 10.7 8 19.6 18.6 20.9l27.5 3.2c7.8.9 15.3 2.9 22.5 5.9h.1c19.6 8.1 40.2 12.3 61.4 12.3 21.3 0 42.1-4.2 61.7-12.4 6.9-2.9 14.1-4.8 21.5-5.6l29-3.4c10.6-1.2 18.6-10.2 18.6-20.9v-27.8c.1-49-39.8-88.9-88.9-88.9m-69.4-2.9c8.7 4.1 18.1 6.2 27.9 6.2 9.7 0 19.2-2.1 27.9-6.2v8.6c0 15.4-12.5 27.9-27.9 27.9s-27.9-12.5-27.9-27.9zm-26.6-82.5v-9c.6-.1 1.3-.1 1.9-.2h32.6v16.9h-34.2zm40.5-21.2h-1.9c17.6-9.9 32.3-25.1 42-44.2 19.4 15.7 22.7 29.6 25.9 44.2h-38.1c-3.3 0-6 2.7-6 6v5.5h-15.9v-5.5c0-3.4-2.7-6-6-6m34 12H270v8.3l-.3 8.7h-34.2zm-91.8-61c1.7-11.2 6-22.5 11.8-30.9 1.1-1.6 2.8-2.6 4.7-3 .4-.1.8-.1 1.2-.1 1.5 0 3 .5 4.2 1.4 0 0 .1 0 .1.1l15.9 11.3c5.8 4.1 13.4 4.9 20 2 10.6-4.7 31.2-12 51.1-7.2 1 .3 13.5 4.2 20.2 14.5s10 34.1 5.3 52.6c-3.7-15.2-9.9-32.2-35.2-50.2-1.5-1.1-3.4-1.4-5.1-.9s-3.2 1.8-3.9 3.4c-13.3 31.3-39.7 51.7-71.5 55.8H157c-4.9-6.4-16.9-25-13.3-48.8m18.2 95.2-.2-5.3h39.8c3.3 0 6-2.7 6-6v-11.5h15.9v11.5c0 3.3 2.7 6 6 6h39.8l-.2 5.3c-.6 17.1-9 32.5-23.1 42.3-9 6.2-19.5 9.5-30.5 9.5s-21.5-3.3-30.4-9.5c-2.4-1.7-4.7-3.6-6.8-5.6-10-9.7-15.8-22.8-16.3-36.7m172.1 177.2c0 4.6-3.4 8.4-8 8.9l-29 3.4c-8.5 1-16.8 3.2-24.7 6.5-18.2 7.6-37.4 11.5-57.1 11.5-19.6 0-38.7-3.8-56.9-11.4h-.1c-8.2-3.4-16.8-5.6-25.7-6.7l-27.5-3.2c-4.5-.5-8-4.4-8-8.9v-27.8c0-42.5 34.5-77 77-77h2.1c3 19 19.5 33.6 39.4 33.6s36.3-14.6 39.4-33.6h2.1c42.5 0 77 34.5 77 77zm-105.6-37.6-15.4 11.4 15.4 11.4c2.7 2 3.2 5.7 1.3 8.4-1.2 1.6-3 2.4-4.8 2.4-1.2 0-2.5-.4-3.6-1.2l-22-16.2c-1.5-1.1-2.4-2.9-2.4-4.8s.9-3.7 2.4-4.8l22-16.2c2.7-2 6.4-1.4 8.4 1.3 1.9 2.6 1.3 6.3-1.3 8.3m62.2-9.7 22 16.2c1.5 1.1 2.4 2.9 2.4 4.8s-.9 3.7-2.4 4.8l-22 16.2c-1.1.8-2.3 1.2-3.5 1.2-1.8 0-3.7-.8-4.8-2.4-2-2.7-1.4-6.4 1.3-8.4l15.5-11.4-15.5-11.4c-2.7-2-3.2-5.7-1.3-8.4 1.9-2.6 5.6-3.1 8.3-1.2m-24 6.7-10.5 32.4c-.8 2.5-3.2 4.1-5.7 4.1-.6 0-1.2-.1-1.9-.3-3.1-1-4.9-4.4-3.9-7.6l10.5-32.4c1-3.1 4.4-4.9 7.6-3.9 3.2 1.2 5 4.6 3.9 7.7"/><defs><linearGradient id="-JWFbZjgaOa" x1="80.3511" x2="340.117" y1="108.55" y2="368.316" gradientUnits="userSpaceOnUse"><stop stop-color="#cb5eee"/><stop offset="1" stop-color="#4be1ec"/></linearGradient></defs></svg>